<?xml version="1.0" encoding="UTF-8"?>
<svg id="Camada_2" data-name="Camada 2" xmlns="http://www.w3.org/2000/svg" viewBox="0 0 1090.08 345.81">
  <defs>
    <style>
      .cls-1 {
        fill: #fff;
      }
    </style>
  </defs>
  <g id="Camada_1-2" data-name="Camada 1">
    <g>
      <g>
        <path class="cls-1" d="M155.78,123.28c-6.89-5.38-12.08-12.46-15.57-21.23-3.49-8.78-5.24-18.16-5.24-28.17s1.79-20.24,5.38-29.58c3.58-9.34,8.82-17.03,15.71-23.07,6.89-6.04,15.14-9.34,24.77-9.91,4.91-.38,9.58.66,14.01,3.11,4.43,2.46,7.88,5.85,10.33,10.19,1.51,2.65,2.26,5.38,2.26,8.21,0,3.59-1.18,6.79-3.54,9.62-2.36,2.83-5.52,4.25-9.48,4.25-2.65,0-6.04-.85-10.19-2.55-.76-.38-1.89-.89-3.4-1.56-1.51-.66-2.93-1.13-4.25-1.42-1.32-.28-2.45-.23-3.4.14-1.7.95-3.87,3.78-6.51,8.49-1.89,4.15-2.83,9.44-2.83,15.85,0,6.98,1.13,12.98,3.4,17.97,2.26,5,5.75,7.5,10.47,7.5,1.88,0,4.15-.57,6.79-1.7,1.32-.57,3.3-1.6,5.94-3.11,2.64-1.51,5.19-2.26,7.64-2.26,2.26,0,4.43.57,6.51,1.7,2.07,1.13,3.87,2.55,5.38,4.25,2.26,3.02,3.4,6.79,3.4,11.32,0,3.4-.8,6.79-2.41,10.19-1.61,3.4-3.64,6.42-6.09,9.06-3.02,3.21-6.7,5.8-11.04,7.79-4.34,1.98-8.59,2.97-12.74,2.97-10,0-18.45-2.69-25.33-8.07Z"/>
        <path class="cls-1" d="M285.85,16.98c4.34,8.68,7.74,19.49,10.19,32.41,2.45,12.93,3.68,25.43,3.68,37.51,0,10.57-.99,19.21-2.97,25.9-1.98,6.7-4.86,10.05-8.63,10.05-3.21,0-6.04-3.02-8.49-9.06-1.89-5.47-3.21-11.32-3.96-17.55-3.96.57-9.06.85-15.29.85-.57-.19-1.42-.28-2.55-.28-4.34,11.32-9.06,20.66-14.15,28.02-5.1,7.36-10.38,11.32-15.85,11.89-8.87,0-13.3-7.08-13.3-21.23,0-12.27,3.16-27.32,9.48-45.15,6.32-17.83,13.96-33.35,22.93-46.56,8.96-13.21,17.03-19.82,24.2-19.82,5.47,0,10.38,4.34,14.72,13.02ZM273.4,78.13c-.38-3.4-.57-5.85-.57-7.36l-.85-8.49c-.19-1.51-.47-3.68-.85-6.51-.38-2.83-.47-5.09-.28-6.79-.95,6.98-3.02,16.23-6.23,27.74,2.26.19,5.19.66,8.78,1.42Z"/>
        <path class="cls-1" d="M323.64,123.28c-6.89-5.38-12.08-12.46-15.57-21.23-3.49-8.78-5.24-18.16-5.24-28.17s1.79-20.24,5.38-29.58c3.58-9.34,8.82-17.03,15.71-23.07,6.89-6.04,15.14-9.34,24.77-9.91,4.91-.38,9.58.66,14.01,3.11,4.43,2.46,7.88,5.85,10.33,10.19,1.51,2.65,2.26,5.38,2.26,8.21,0,3.59-1.18,6.79-3.54,9.62-2.36,2.83-5.52,4.25-9.48,4.25-2.65,0-6.04-.85-10.19-2.55-.76-.38-1.89-.89-3.4-1.56-1.51-.66-2.93-1.13-4.25-1.42-1.32-.28-2.45-.23-3.4.14-1.7.95-3.87,3.78-6.51,8.49-1.89,4.15-2.83,9.44-2.83,15.85,0,6.98,1.13,12.98,3.4,17.97,2.26,5,5.75,7.5,10.47,7.5,1.88,0,4.15-.57,6.79-1.7,1.32-.57,3.3-1.6,5.94-3.11,2.64-1.51,5.19-2.26,7.64-2.26,2.26,0,4.43.57,6.51,1.7,2.07,1.13,3.87,2.55,5.38,4.25,2.26,3.02,3.4,6.79,3.4,11.32,0,3.4-.8,6.79-2.41,10.19-1.61,3.4-3.64,6.42-6.09,9.06-3.02,3.21-6.7,5.8-11.04,7.79-4.34,1.98-8.59,2.97-12.74,2.97-10,0-18.45-2.69-25.33-8.07Z"/>
        <path class="cls-1" d="M453.71,16.98c4.34,8.68,7.74,19.49,10.19,32.41,2.45,12.93,3.68,25.43,3.68,37.51,0,10.57-.99,19.21-2.97,25.9-1.98,6.7-4.86,10.05-8.63,10.05-3.21,0-6.04-3.02-8.49-9.06-1.89-5.47-3.21-11.32-3.96-17.55-3.96.57-9.06.85-15.29.85-.57-.19-1.42-.28-2.55-.28-4.34,11.32-9.06,20.66-14.15,28.02-5.1,7.36-10.38,11.32-15.85,11.89-8.87,0-13.3-7.08-13.3-21.23,0-12.27,3.16-27.32,9.48-45.15,6.32-17.83,13.96-33.35,22.93-46.56,8.96-13.21,17.03-19.82,24.2-19.82,5.47,0,10.38,4.34,14.72,13.02ZM441.25,78.13c-.38-3.4-.57-5.85-.57-7.36l-.85-8.49c-.19-1.51-.47-3.68-.85-6.51-.38-2.83-.47-5.09-.28-6.79-.95,6.98-3.02,16.23-6.23,27.74,2.26.19,5.19.66,8.78,1.42Z"/>
        <path class="cls-1" d="M486.4,135.73c-2.74-1.98-4.95-4.48-6.65-7.5-2.45-4.53-4.39-11.42-5.8-20.66-1.42-9.24-2.12-19.25-2.12-30.01,0-13.4,1.13-25.9,3.4-37.51,2.26-11.61,5.75-20.43,10.47-26.47,4.34-5.47,9.15-8.21,14.44-8.21,2.26,0,4.34.57,6.23,1.7,1.88,1.13,3.49,2.74,4.81,4.81,2.64-1.88,5.66-3.58,9.06-5.09,3.77-1.88,8.02-2.83,12.74-2.83,7.17,0,13.11,2.26,17.83,6.79,3.58,3.21,6.32,7.5,8.21,12.88,1.88,5.38,2.83,10.9,2.83,16.56,0,4.72-.76,9.53-2.26,14.44-2.26,6.61-5.66,12.22-10.19,16.84-4.53,4.63-9.72,8.17-15.57,10.62,8.49,3.59,15.57,7.97,21.23,13.16,5.66,5.19,8.49,10.9,8.49,17.13,0,3.21-1.04,6.7-3.11,10.47-1.32,2.65-3.3,4.91-5.94,6.79-2.65,1.89-5.85,2.83-9.62,2.83-4.72,0-8.59-1.18-11.61-3.54-3.02-2.36-6.51-5.9-10.47-10.62-3.78-4.9-7.08-8.3-9.91-10.19.38,7.36-.19,13.02-1.7,16.98-1.13,3.78-3.21,6.98-6.23,9.62-3.02,2.64-6.32,3.96-9.91,3.96-3.02,0-5.9-.99-8.63-2.97ZM527.59,51.24c3.02-4.34,4.53-8.21,4.53-11.61,0-2.26-.61-3.96-1.84-5.1-1.23-1.13-2.79-1.7-4.67-1.7-2.65,0-5.05,1.23-7.22,3.68-2.17,2.46-3.35,5.95-3.54,10.47v1.42c0,3.96.94,6.51,2.83,7.64.75.76,1.88.95,3.4.57,2.07-.57,4.25-2.36,6.51-5.38Z"/>
        <path class="cls-1" d="M623.97,131.91c-8.21,2.83-16.37,4.25-24.49,4.25-9.25,0-16.94-1.93-23.07-5.8-6.13-3.87-9.77-9.86-10.9-17.98,0-15.29,9.34-29.16,28.02-41.61-1.51.38-3.49.57-5.94.57-4.91,0-8.73-1.32-11.46-3.96-2.74-2.64-4.1-6.32-4.1-11.04,0-2.26.47-5,1.42-8.21,2.26-6.04,7.26-12.31,15-18.82,7.74-6.51,16.37-11.98,25.9-16.42,9.53-4.43,17.5-6.65,23.92-6.65,3.58,0,6.46.76,8.63,2.26,2.17,1.51,3.26,3.68,3.26,6.51,0,4.15-2.79,8.87-8.35,14.15-5.57,5.29-11.94,10.15-19.11,14.58-7.17,4.44-12.93,7.41-17.27,8.92l6.51-1.98c9.43-3.4,16.6-5.1,21.51-5.1,2.83,0,5.19.66,7.08,1.98,1.88,1.32,2.83,3.3,2.83,5.94,0,8.49-11.8,22.74-35.38,42.74,7.17-5.28,13.35-9.67,18.54-13.16,5.19-3.49,9.67-5.71,13.45-6.65,2.07-.57,4.06-.85,5.94-.85,4.53,0,8.16,1.42,10.9,4.25,2.73,2.83,4.1,6.51,4.1,11.04s-1.37,9.39-4.1,14.58c-2.74,5.19-7.03,10.33-12.88,15.43-5.1,4.53-11.75,8.21-19.96,11.04Z"/>
        <path class="cls-1" d="M683.13,123.28c-6.89-5.38-12.08-12.46-15.57-21.23-3.49-8.78-5.24-18.16-5.24-28.17s1.79-20.24,5.38-29.58c3.58-9.34,8.82-17.03,15.71-23.07,6.89-6.04,15.14-9.34,24.77-9.91,4.91-.38,9.58.66,14.01,3.11,4.43,2.46,7.88,5.85,10.33,10.19,1.51,2.65,2.26,5.38,2.26,8.21,0,3.59-1.18,6.79-3.54,9.62-2.36,2.83-5.52,4.25-9.48,4.25-2.65,0-6.04-.85-10.19-2.55-.76-.38-1.89-.89-3.4-1.56-1.51-.66-2.93-1.13-4.25-1.42-1.32-.28-2.45-.23-3.4.14-1.7.95-3.87,3.78-6.51,8.49-1.89,4.15-2.83,9.44-2.83,15.85,0,6.98,1.13,12.98,3.4,17.97,2.26,5,5.75,7.5,10.47,7.5,1.88,0,4.15-.57,6.79-1.7,1.32-.57,3.3-1.6,5.94-3.11,2.64-1.51,5.19-2.26,7.64-2.26,2.26,0,4.43.57,6.51,1.7,2.07,1.13,3.87,2.55,5.38,4.25,2.26,3.02,3.4,6.79,3.4,11.32,0,3.4-.8,6.79-2.41,10.19-1.61,3.4-3.64,6.42-6.09,9.06-3.02,3.21-6.7,5.8-11.04,7.79-4.34,1.98-8.59,2.97-12.74,2.97-10,0-18.45-2.69-25.33-8.07Z"/>
        <path class="cls-1" d="M753.62,112.8c-7.08-12.36-10.62-26.56-10.62-42.6,0-8.49.94-16.89,2.83-25.19,3.77-11.51,10-20.52,18.68-27.03,8.68-6.51,18.02-9.77,28.02-9.77,10.57,0,19.96,3.68,28.17,11.04,8.21,7.36,13.63,18.02,16.28,31.99.75,3.96,1.13,8.78,1.13,14.44,0,11.51-1.84,22.74-5.52,33.68-3.68,10.95-9.2,19.72-16.56,26.33-7.36,6.61-16.04,9.44-26.04,8.49-17.17-1.88-29.3-9.01-36.37-21.37ZM797.49,80.39c2.36-4.15,3.54-8.49,3.54-13.02,0-3.02-.57-5.47-1.7-7.36-1.51-2.64-3.3-3.96-5.38-3.96-3.02,0-6.04,2.36-9.06,7.08-3.02,4.72-4.63,8.59-4.81,11.61-.38,2.83.33,5.52,2.12,8.07,1.79,2.55,4.01,3.82,6.65,3.82,3.4,0,6.27-2.08,8.63-6.23Z"/>
        <path class="cls-1" d="M840.52,131.06c-1.42-2.64-2.12-5.28-2.12-7.93,0-2.26.38-4.15,1.13-5.66,1.51-3.02,3.58-5.24,6.23-6.65,2.64-1.42,6.32-2.78,11.04-4.1,5.66-1.51,9.81-3.21,12.46-5.1,2.64-1.88,4.71-4.29,6.23-7.22,1.51-2.92,2.26-5.99,2.26-9.2-.38-3.96-1.51-7.36-3.4-10.19-1.89-2.83-4.72-6.32-8.49-10.47-3.96-4.53-6.94-8.3-8.92-11.32-1.98-3.02-2.97-6.7-2.97-11.04,0-3.58.85-7.45,2.55-11.61,3.02-8.11,8.92-15.24,17.69-21.37,8.78-6.13,17.5-9.2,26.18-9.2,4.34,0,8.02.76,11.04,2.26,3.4,1.51,5.94,3.4,7.64,5.66,1.7,2.26,2.55,4.72,2.55,7.36,0,3.4-1.37,6.51-4.1,9.34-2.74,2.83-6.37,4.81-10.9,5.94-.95.38-2.69.99-5.24,1.84-2.55.85-4.77,1.84-6.65,2.97-5.29,3.4-7.93,7.08-7.93,11.04,0,2.64,1.08,5.24,3.26,7.78,2.17,2.55,5.14,5.52,8.92,8.92l5.38,4.81c9.81,9.82,14.72,20.01,14.72,30.57,0,7.93-2.45,15.29-7.36,22.08-4.91,6.79-11.28,12.17-19.11,16.14-7.83,3.96-15.99,5.94-24.49,5.94s-15.38-1.88-21.8-5.66c-2.46-1.32-4.39-3.3-5.8-5.95Z"/>
      </g>
      <g>
        <path class="cls-1" d="M14.44,340.71c-5.1-3.4-9.25-8.49-12.46-15.29-1.32-4.53-1.98-8.96-1.98-13.3,0-9.62,2.83-18.3,8.49-26.04,5.66-7.74,13.77-16.04,24.34-24.91-4.91-7.93-8.49-13.96-10.76-18.12-6.98-12.07-10.47-24.53-10.47-37.37,0-10.38,2.12-20,6.37-28.87,4.25-8.87,10.19-15.99,17.83-21.37,7.64-5.38,16.37-8.07,26.18-8.07,14.72,0,26.09,4.67,34.11,14.01,8.02,9.34,12.03,20.9,12.03,34.68,0,4.91-.57,9.81-1.7,14.72-1.89,8.87-5.57,16.75-11.04,23.64-5.48,6.89-13.21,14.96-23.21,24.2-1.13.76-2.65,2.08-4.53,3.96l9.34,13.87.57.85,7.93-10.19c4.34-5.85,8.4-9.81,12.17-11.89,2.64-1.51,5.47-2.26,8.49-2.26,3.4,0,6.32.95,8.78,2.83,2.45,1.89,3.68,4.44,3.68,7.64,0,1.13-.38,2.83-1.13,5.09-.38,1.32-2.69,5.24-6.94,11.75-4.25,6.51-9.2,13.26-14.86,20.24l7.36,7.64c7.17,6.61,10.76,12.93,10.76,18.97,0,2.08-.19,3.68-.57,4.81-1.7,5.66-5,8.49-9.91,8.49-2.83,0-6.04-1.04-9.62-3.11-2.65-1.51-5-3.35-7.08-5.52-2.08-2.17-4.44-4.95-7.08-8.35-.76-1.13-1.42-1.98-1.98-2.55-16.98,16.61-32.46,24.91-46.42,24.91-6.04,0-11.61-1.7-16.7-5.09ZM43.03,314.67c2.07,0,4.2-.8,6.37-2.41,2.17-1.6,4.1-3.44,5.8-5.52l5.66-7.64c-2.64-3.58-6.79-8.96-12.46-16.14-4.91,6.04-8.49,12.17-10.76,18.4-.76,1.7-1.13,3.68-1.13,5.95,0,3.02,1.03,5.19,3.11,6.51,1.13.57,2.26.85,3.4.85ZM72.47,215.6c3.58-6.6,5.38-12.74,5.38-18.4,0-6.04-1.65-11.04-4.95-15-3.3-3.96-7.13-5.94-11.46-5.94-3.4,0-6.56,1.32-9.48,3.96-2.93,2.65-5.24,6.61-6.94,11.89-.95,3.21-1.42,6.04-1.42,8.49,0,5.09,1.13,10.19,3.4,15.29,2.26,5.1,5.47,11.14,9.62,18.12,7.74-7.36,13.02-13.49,15.85-18.4Z"/>
        <path class="cls-1" d="M241.17,204.27c4.34,8.68,7.74,19.49,10.19,32.41,2.45,12.93,3.68,25.43,3.68,37.51,0,10.57-.99,19.21-2.97,25.9-1.98,6.7-4.86,10.05-8.63,10.05-3.21,0-6.04-3.02-8.49-9.06-1.89-5.47-3.21-11.32-3.96-17.55-3.96.57-9.06.85-15.29.85-.57-.19-1.42-.28-2.55-.28-4.34,11.32-9.06,20.66-14.15,28.02-5.1,7.36-10.38,11.32-15.85,11.89-8.87,0-13.3-7.08-13.3-21.23,0-12.27,3.16-27.32,9.48-45.15,6.32-17.83,13.96-33.35,22.93-46.56,8.96-13.21,17.03-19.82,24.2-19.82,5.47,0,10.38,4.34,14.72,13.02ZM228.72,265.42c-.38-3.4-.57-5.85-.57-7.36l-.85-8.49c-.19-1.51-.47-3.68-.85-6.51-.38-2.83-.47-5.09-.28-6.79-.95,6.98-3.02,16.23-6.23,27.74,2.26.19,5.19.66,8.78,1.42Z"/>
        <path class="cls-1" d="M344.77,307.45c-2.45-10.09-3.68-22.03-3.68-35.81,0-8.11.28-15.29.85-21.51-3.59,28.5-8.87,42.93-15.85,43.31-10.38,0-17.36-15.38-20.95-46.14.38,6.79.57,12.27.57,16.42,0,16.42-1.7,30.34-5.1,41.75-3.4,11.42-9.34,17.12-17.83,17.12-1.51,0-2.64-.09-3.4-.28-6.61-1.13-11.7-6.51-15.29-16.13-3.59-9.62-5.38-21.13-5.38-34.53,0-12.46,1.56-24.63,4.67-36.52s7.69-21.66,13.73-29.3c6.04-7.64,13.21-11.46,21.51-11.46,7.17,0,13.35,3.02,18.54,9.06,5.19,6.04,9.39,16.8,12.6,32.27,1.13-8.49,3.68-15.29,7.64-20.38,3.96-5.09,8.68-7.64,14.15-7.64,2.07,0,4.15.38,6.23,1.13,5.85,2.64,10.57,10.43,14.15,23.35,3.58,12.93,5.38,26.85,5.38,41.75,0,13.78-1.65,25.33-4.95,34.68-3.3,9.34-8.07,14.01-14.29,14.01s-10.85-5.05-13.3-15.14Z"/>
        <path class="cls-1" d="M438.04,319.2c-8.21,2.83-16.37,4.25-24.49,4.25-9.25,0-16.94-1.93-23.07-5.8-6.13-3.87-9.77-9.86-10.9-17.98,0-15.29,9.34-29.16,28.02-41.61-1.51.38-3.49.57-5.94.57-4.91,0-8.73-1.32-11.46-3.96-2.74-2.64-4.1-6.32-4.1-11.04,0-2.26.47-5,1.42-8.21,2.26-6.04,7.26-12.31,15-18.82,7.74-6.51,16.37-11.98,25.9-16.42,9.53-4.43,17.5-6.65,23.92-6.65,3.58,0,6.46.76,8.63,2.26,2.17,1.51,3.26,3.68,3.26,6.51,0,4.15-2.79,8.87-8.35,14.15-5.57,5.29-11.94,10.15-19.11,14.58-7.17,4.44-12.93,7.41-17.27,8.92l6.51-1.98c9.43-3.4,16.6-5.1,21.51-5.1,2.83,0,5.19.66,7.08,1.98,1.88,1.32,2.83,3.3,2.83,5.94,0,8.49-11.8,22.74-35.38,42.74,7.17-5.28,13.35-9.67,18.54-13.16,5.19-3.49,9.67-5.71,13.45-6.65,2.07-.57,4.06-.85,5.94-.85,4.53,0,8.16,1.42,10.9,4.25,2.73,2.83,4.1,6.51,4.1,11.04s-1.37,9.39-4.1,14.58c-2.74,5.19-7.03,10.33-12.88,15.43-5.1,4.53-11.75,8.21-19.96,11.04Z"/>
        <path class="cls-1" d="M476.96,287.78c0-18.87,2.69-36.38,8.07-52.51s13.82-25.8,25.33-29.01c2.26-.38,3.87-.57,4.81-.57,5.66,0,10.47,2.26,14.44,6.79s8.11,10.95,12.46,19.25c3.4,6.04,6.09,10.43,8.07,13.16,1.98,2.74,4.2,4.2,6.65,4.39,3.58-.57,5.94-2.97,7.08-7.22,1.13-4.25,1.98-10.62,2.55-19.11.57-8.11,1.32-14.72,2.26-19.82.94-5.09,3.02-9.48,6.23-13.16,3.21-3.68,7.93-5.52,14.15-5.52,13.02,0,19.53,10.19,19.53,30.57,0,10.76-1.7,22.65-5.1,35.67-3.4,13.02-6.98,23.4-10.76,31.14-3.02,5.66-7.08,10.33-12.17,14.01-5.1,3.68-10.47,5.52-16.14,5.52-6.23,0-12.03-2.5-17.41-7.5-5.38-5-9.96-12.97-13.73-23.92-.38-.94-.99-2.83-1.84-5.66-.85-2.83-1.89-5.33-3.11-7.5-1.23-2.17-2.5-3.54-3.82-4.1-3.59-.94-5.99,1.61-7.22,7.64-1.23,6.04-1.84,13.97-1.84,23.78v10.47c0,3.59-.1,5.85-.28,6.79.19,8.49-1.7,15.53-5.66,21.09-3.96,5.57-8.59,8.35-13.87,8.35-2.83,0-5.57-.99-8.21-2.97-2.64-1.98-4.81-5.05-6.51-9.2-2.65-5.66-3.96-15.94-3.96-30.85Z"/>
        <path class="cls-1" d="M613.26,288.49c-1.23-7.83-1.84-16.18-1.84-25.05,0-16.98,2.03-31.75,6.09-44.3,4.06-12.55,10.05-18.73,17.98-18.54,6.79.19,11.61,5.48,14.44,15.85,2.83,10.38,4.25,23.4,4.25,39.06,0,10-.47,19.72-1.42,29.16-.95,9.44-1.89,15.67-2.83,18.68-1.32,4.15-3.54,7.41-6.65,9.77-3.11,2.36-6.47,3.54-10.05,3.54-3.02,0-5.85-.8-8.49-2.41-2.65-1.6-4.81-4.01-6.51-7.22-2.08-4.53-3.73-10.71-4.95-18.54Z"/>
        <path class="cls-1" d="M662.65,291.88c-2.26-10.47-3.4-21.84-3.4-34.11,0-16.98,1.6-30.47,4.81-40.48,2.26-7.93,5.99-13.87,11.18-17.83,5.19-3.96,11.08-5.94,17.69-5.94,4.71,0,9.48,1.04,14.29,3.11,4.81,2.08,9.01,5.1,12.6,9.06,6.79,6.23,11.93,13.73,15.43,22.5,3.49,8.78,5.24,17.98,5.24,27.6,0,10.19-1.89,20.1-5.66,29.72-3.78,9.62-9.25,17.83-16.42,24.63-3.4,4.15-7.6,7.46-12.6,9.91-5,2.45-9.96,3.68-14.86,3.68-7.17,0-13.21-2.73-18.12-8.21-4.53-5.28-7.93-13.16-10.19-23.64ZM701.43,280.42c2.26,0,4.48-1.98,6.65-5.94,2.17-3.96,3.26-8.58,3.26-13.87,0-6.04-.9-10.8-2.69-14.29-1.8-3.49-3.82-5.24-6.09-5.24-1.13,0-2.22.62-3.26,1.84-1.04,1.23-1.65,2.97-1.84,5.24-.19,1.32-.28,4.53-.28,9.62,0,10.19.28,16.42.85,18.68.57,2.65,1.7,3.96,3.4,3.96Z"/>
        <path class="cls-1" d="M813.53,204.27c4.34,8.68,7.74,19.49,10.19,32.41,2.45,12.93,3.68,25.43,3.68,37.51,0,10.57-.99,19.21-2.97,25.9-1.98,6.7-4.86,10.05-8.63,10.05-3.21,0-6.04-3.02-8.49-9.06-1.89-5.47-3.21-11.32-3.96-17.55-3.96.57-9.06.85-15.29.85-.57-.19-1.42-.28-2.55-.28-4.34,11.32-9.06,20.66-14.15,28.02-5.1,7.36-10.38,11.32-15.85,11.89-8.87,0-13.3-7.08-13.3-21.23,0-12.27,3.16-27.32,9.48-45.15,6.32-17.83,13.96-33.35,22.93-46.56,8.96-13.21,17.03-19.82,24.2-19.82,5.47,0,10.38,4.34,14.72,13.02ZM801.07,265.42c-.38-3.4-.57-5.85-.57-7.36l-.85-8.49c-.19-1.51-.47-3.68-.85-6.51-.38-2.83-.47-5.09-.28-6.79-.95,6.98-3.02,16.23-6.23,27.74,2.26.19,5.19.66,8.78,1.42Z"/>
        <path class="cls-1" d="M835.04,291.88c-2.26-10.47-3.4-21.84-3.4-34.11,0-16.98,1.6-30.47,4.81-40.48,2.26-7.93,5.99-13.87,11.18-17.83,5.19-3.96,11.08-5.94,17.69-5.94,4.71,0,9.48,1.04,14.29,3.11,4.81,2.08,9.01,5.1,12.6,9.06,6.79,6.23,11.93,13.73,15.43,22.5,3.49,8.78,5.24,17.98,5.24,27.6,0,10.19-1.89,20.1-5.66,29.72-3.78,9.62-9.25,17.83-16.42,24.63-3.4,4.15-7.6,7.46-12.6,9.91-5,2.45-9.96,3.68-14.86,3.68-7.17,0-13.21-2.73-18.12-8.21-4.53-5.28-7.93-13.16-10.19-23.64ZM873.82,280.42c2.26,0,4.48-1.98,6.65-5.94,2.17-3.96,3.26-8.58,3.26-13.87,0-6.04-.9-10.8-2.69-14.29-1.8-3.49-3.82-5.24-6.09-5.24-1.13,0-2.22.62-3.26,1.84-1.04,1.23-1.65,2.97-1.84,5.24-.19,1.32-.28,4.53-.28,9.62,0,10.19.28,16.42.85,18.68.57,2.65,1.7,3.96,3.4,3.96Z"/>
        <path class="cls-1" d="M973.03,319.2c-8.21,2.83-16.37,4.25-24.49,4.25-9.25,0-16.94-1.93-23.07-5.8-6.13-3.87-9.77-9.86-10.9-17.98,0-15.29,9.34-29.16,28.02-41.61-1.51.38-3.49.57-5.94.57-4.91,0-8.73-1.32-11.46-3.96-2.74-2.64-4.1-6.32-4.1-11.04,0-2.26.47-5,1.42-8.21,2.26-6.04,7.26-12.31,15-18.82,7.74-6.51,16.37-11.98,25.9-16.42,9.53-4.43,17.5-6.65,23.92-6.65,3.58,0,6.46.76,8.63,2.26,2.17,1.51,3.26,3.68,3.26,6.51,0,4.15-2.79,8.87-8.35,14.15-5.57,5.29-11.94,10.15-19.11,14.58-7.17,4.44-12.93,7.41-17.27,8.92l6.51-1.98c9.43-3.4,16.6-5.1,21.51-5.1,2.83,0,5.19.66,7.08,1.98,1.88,1.32,2.83,3.3,2.83,5.94,0,8.49-11.8,22.74-35.38,42.74,7.17-5.28,13.35-9.67,18.54-13.16,5.19-3.49,9.67-5.71,13.45-6.65,2.07-.57,4.06-.85,5.94-.85,4.53,0,8.16,1.42,10.9,4.25,2.73,2.83,4.1,6.51,4.1,11.04s-1.37,9.39-4.1,14.58c-2.74,5.19-7.03,10.33-12.88,15.43-5.1,4.53-11.75,8.21-19.96,11.04Z"/>
        <path class="cls-1" d="M1008.98,318.35c-1.42-2.64-2.12-5.28-2.12-7.93,0-2.26.38-4.15,1.13-5.66,1.51-3.02,3.58-5.24,6.23-6.65,2.64-1.42,6.32-2.78,11.04-4.1,5.66-1.51,9.81-3.21,12.46-5.1,2.64-1.88,4.71-4.29,6.23-7.22,1.51-2.92,2.26-5.99,2.26-9.2-.38-3.96-1.51-7.36-3.4-10.19-1.89-2.83-4.72-6.32-8.49-10.47-3.96-4.53-6.94-8.3-8.92-11.32-1.98-3.02-2.97-6.7-2.97-11.04,0-3.58.85-7.45,2.55-11.61,3.02-8.11,8.92-15.24,17.69-21.37,8.78-6.13,17.5-9.2,26.18-9.2,4.34,0,8.02.76,11.04,2.26,3.4,1.51,5.94,3.4,7.64,5.66,1.7,2.26,2.55,4.72,2.55,7.36,0,3.4-1.37,6.51-4.1,9.34-2.74,2.83-6.37,4.81-10.9,5.94-.95.38-2.69.99-5.24,1.84-2.55.85-4.77,1.84-6.65,2.97-5.29,3.4-7.93,7.08-7.93,11.04,0,2.64,1.08,5.24,3.26,7.78,2.17,2.55,5.14,5.52,8.92,8.92l5.38,4.81c9.81,9.82,14.72,20.01,14.72,30.57,0,7.93-2.45,15.29-7.36,22.08-4.91,6.79-11.28,12.17-19.11,16.14-7.83,3.96-15.99,5.94-24.49,5.94s-15.38-1.88-21.8-5.66c-2.46-1.32-4.39-3.3-5.8-5.95Z"/>
      </g>
    </g>
  </g>
</svg>